# xmcd
#
# Track frame offsets: 
#        150
#        23289
#        52119
#        66835
#        94923
#        118305
#        138047
#        153975
#        184858
#        206081
#        225388
#        245721
#        264387
#        284727
#        316569
#        333227
#
# Disc length: 4784 seconds
#
# Revision: 0
# Processed by: cddbd v1.5.2PL0 Copyright (c) Steve Scherf et al.
# Submitted via: ExactAudioCopy v1.3
#
DISCID=e112ae10
DTITLE=Various Artist - Akella Presents - vol. 142 - Black Pure Blues
DTITLE=CD2
DYEAR=2018
DGENRE=Blues
TTITLE0=Gitlo Lee - Joe Brown
TTITLE1=Daddy Mack Blues Band - Of Blues I Sing
TTITLE2=Billy Boy Arnold - I Ain't Got You
TTITLE3=Larry Garner - Keep Playing The Blues
TTITLE4=Buddy Guy - Come Back Muddy
TTITLE5=Toronzo Cannon - Can't Hold Out
TTITLE6=Willie Buck - Got My Mojo Workin'
TTITLE7=Bernard Allison - Garbage Man
TTITLE8=Maurice John Vaughn - Small Town Baby
TTITLE9=Bobby Jones - How Long Will It Last
TTITLE10=Willie Buck and J.L. Pardo  Quique Gomez - Kansas City
TTITLE11=The Mannish Boys - Call My Job
TTITLE12=Jimmy Burns - It Ain't Right
TTITLE13=James Cotton - Back to St. Louis
TTITLE14=Johnny Laws - Don't You Lie
TTITLE15=Eddie Tigner - Please Send Me Someone To Love
EXTD=
EXTT0=
EXTT1=
EXTT2=
EXTT3=
EXTT4=
EXTT5=
EXTT6=
EXTT7=
EXTT8=
EXTT9=
EXTT10=
EXTT11=
EXTT12=
EXTT13=
EXTT14=
EXTT15=
PLAYORDER=
